HIERARCHY
ROOT Hips
{
	OFFSET -0.001795 -0.223333 0.028219
	CHANNELS 6 Xposition Yposition Zposition Zrotation Yrotation Xrotation 
	JOINT LeftUpLeg
	{
		OFFSET 0.069520 -0.091406 -0.006815
		CHANNELS 3 Zrotation Yrotation Xrotation
		JOINT LeftLeg
		{
			OFFSET 0.034277 -0.375199 -0.004496
			CHANNELS 3 Zrotation Yrotation Xrotation
			JOINT LeftFoot
			{
				OFFSET -0.013596 -0.397961 -0.043693
				CHANNELS 3 Zrotation Yrotation Xrotation
				JOINT LeftToe
				{
					OFFSET 0.026358 -0.055791 0.119288
					CHANNELS 3 Zrotation Yrotation Xrotation
					End Site
					{
						OFFSET 0.000000 0.000000 0.000000
					}
				}
			}
		}
	}
	JOINT RightUpLeg
	{
		OFFSET -0.067670 -0.090522 -0.004320
		CHANNELS 3 Zrotation Yrotation Xrotation
		JOINT RightLeg
		{
			OFFSET -0.038290 -0.382569 -0.008850
			CHANNELS 3 Zrotation Yrotation Xrotation
			JOINT RightFoot
			{
				OFFSET 0.015774 -0.398415 -0.042312
				CHANNELS 3 Zrotation Yrotation Xrotation
				JOINT RightToe
				{
					OFFSET -0.025372 -0.048144 0.123348
					CHANNELS 3 Zrotation Yrotation Xrotation
					End Site
					{
						OFFSET 0.000000 0.000000 0.000000
					}
				}
			}
		}
	}
	JOINT Spine
	{
		OFFSET -0.002533 0.108963 -0.026696
		CHANNELS 3 Zrotation Yrotation Xrotation
		JOINT Spine1
		{
			OFFSET 0.005487 0.135180 0.001092
			CHANNELS 3 Zrotation Yrotation Xrotation
			JOINT Spine2
			{
				OFFSET 0.001457 0.052922 0.025425
				CHANNELS 3 Zrotation Yrotation Xrotation
				JOINT Neck
				{
					OFFSET -0.002778 0.213870 -0.042857
					CHANNELS 3 Zrotation Yrotation Xrotation
					JOINT Head
					{
						OFFSET 0.005152 0.064970 0.051349
						CHANNELS 3 Zrotation Yrotation Xrotation
						End Site
						{
							OFFSET 0.000000 0.000000 0.000000
						}
					}
				}
				JOINT LeftShoulder
				{
					OFFSET 0.078845 0.121749 -0.034090
					CHANNELS 3 Zrotation Yrotation Xrotation
					JOINT LeftArm
					{
						OFFSET 0.090977 0.030469 -0.008868
						CHANNELS 3 Zrotation Yrotation Xrotation
						JOINT LeftForeArm
						{
							OFFSET 0.259612 -0.012772 -0.027456
							CHANNELS 3 Zrotation Yrotation Xrotation
							JOINT LeftHand
							{
								OFFSET 0.249234 0.008986 -0.001171
								CHANNELS 3 Zrotation Yrotation Xrotation
								End Site
								{
									OFFSET 0.000000 0.000000 0.000000
								}
							}
						}
					}
				}
				JOINT RightShoulder
				{
					OFFSET -0.081759 0.118833 -0.038615
					CHANNELS 3 Zrotation Yrotation Xrotation
					JOINT RightArm
					{
						OFFSET -0.096012 0.032551 -0.009143
						CHANNELS 3 Zrotation Yrotation Xrotation
						JOINT RightForeArm
						{
							OFFSET -0.253742 -0.013329 -0.021401
							CHANNELS 3 Zrotation Yrotation Xrotation
							JOINT RightHand
							{
								OFFSET -0.255298 0.007772 -0.005559
								CHANNELS 3 Zrotation Yrotation Xrotation
								End Site
								{
									OFFSET 0.000000 0.000000 0.000000
								}
							}
						}
					}
				}
			}
		}
	}
}
MOTION
Frames: 6
Frame Time: 0.050000
0.138930 0.878331 0.340237 -1.152867 18.183800 4.431966 -0.768009 0.863531 29.859931 3.789666 0.216275 -10.434288 -2.393121 -5.027948 -0.358930 0.000000 0.000000 0.000000 -4.124091 -0.207513 -42.330751 2.065069 -0.381649 13.775843 -0.134091 -2.422962 8.815243 0.000000 0.000000 0.000000 1.327545 -1.092172 13.828947 7.662019 -2.787565 -6.367551 -2.103782 -20.521133 5.019299 -1.144928 1.278035 -32.239193 0.000000 0.000000 0.000000 -19.511824 7.372976 -3.353902 -43.133753 -30.779286 5.236764 -16.484370 -52.389626 12.791493 0.000000 0.000000 0.000000 18.985157 -10.598874 -9.937763 46.566029 -3.548353 -5.266495 5.715399 13.602425 0.748078 0.000000 0.000000 0.000000 
0.148940 0.869916 0.421588 -1.725008 19.333479 6.090845 0.545273 0.234246 31.575477 5.192905 0.123385 -8.818650 -3.513097 -4.260025 3.694688 0.000000 0.000000 0.000000 -3.058670 -0.109743 -44.253496 2.782983 -0.822668 19.003524 0.616908 -0.924884 8.891204 0.000000 0.000000 0.000000 3.285554 -1.266702 12.392109 6.872333 -2.386256 -6.610085 -1.491656 -22.326650 3.099257 -1.584400 1.462229 -34.231524 0.000000 0.000000 0.000000 -19.574205 7.987611 -3.490705 -45.267480 -31.123951 6.015813 -22.138683 -55.902867 17.314688 0.000000 0.000000 0.000000 19.529710 -11.034704 -10.663109 44.893302 -6.207581 -5.757451 4.243753 12.501897 0.527177 0.000000 0.000000 0.000000 
0.156643 0.874515 0.514908 -2.672085 18.976792 7.642213 2.485664 -0.374529 31.371039 6.005006 -0.313249 -2.803977 -6.239938 -4.477827 10.637931 0.000000 0.000000 0.000000 -1.237350 0.545302 -47.146108 3.717246 -1.666833 27.633613 1.199924 -0.098088 9.387951 0.000000 0.000000 0.000000 4.623277 -1.134694 9.478697 7.690042 -2.566413 -7.773572 -2.790021 -21.640496 3.165254 -2.313929 1.834003 -33.447120 0.000000 0.000000 0.000000 -19.621713 10.136410 -4.963076 -48.460274 -27.599540 5.259694 -31.559109 -56.893654 23.199570 0.000000 0.000000 0.000000 18.821711 -11.945364 -10.638279 43.710001 -6.088707 -5.581326 4.894356 9.423796 0.449821 0.000000 0.000000 0.000000 
0.161427 0.890915 0.613521 -3.517614 18.285862 7.350794 4.564240 -0.717899 26.928735 6.259630 -1.544184 9.203354 -10.114749 -5.218889 19.368372 0.000000 0.000000 0.000000 1.207604 1.890636 -41.928243 4.039831 -1.990279 29.239373 0.525943 -0.211989 5.010676 0.000000 0.000000 0.000000 5.855523 -1.229605 8.908457 6.499199 -2.035476 -8.209137 -2.079450 -19.893354 2.851751 -2.971246 2.283202 -34.701260 0.000000 0.000000 0.000000 -21.460664 10.567998 -5.673634 -50.001527 -24.274840 4.010757 -37.964703 -53.334190 24.829315 0.000000 0.000000 0.000000 16.795357 -11.530496 -9.443599 45.632287 -7.620608 -6.575341 5.457304 9.607969 0.510114 0.000000 0.000000 0.000000 
0.165045 0.910660 0.708174 -3.938583 16.409513 7.476640 4.988544 -0.250333 16.100540 4.248770 -3.555320 27.134178 -5.923867 -0.739952 17.014355 0.000000 0.000000 0.000000 4.593989 3.145144 -34.727483 1.992311 -0.850216 25.627517 0.540820 0.844583 1.736329 0.000000 0.000000 0.000000 5.887260 -1.138016 8.215027 4.777461 -1.336452 -8.536431 -1.504258 -16.857003 3.976472 -2.736798 2.330887 -33.292612 0.000000 0.000000 0.000000 -20.990115 9.233324 -5.282345 -49.989959 -19.793476 2.006225 -39.022171 -49.523863 22.949655 0.000000 0.000000 0.000000 18.016078 -10.025847 -8.720361 45.356579 -6.333463 -6.100868 6.096214 10.626079 0.655657 0.000000 0.000000 0.000000 
0.169519 0.927388 0.798614 -4.321675 15.096330 5.886142 5.437011 -0.278466 2.390456 -0.360494 -4.406485 44.562486 0.052126 3.102084 5.695102 0.000000 0.000000 0.000000 7.878183 3.163306 -23.574602 -0.145929 0.132457 19.426224 0.138677 1.122944 -2.155233 0.000000 0.000000 0.000000 4.934671 -1.176284 9.936177 3.355909 -0.862335 -7.815285 0.608667 -12.349124 4.120802 -3.336024 2.925698 -32.466713 0.000000 0.000000 0.000000 -21.755649 8.021669 -5.482382 -49.363486 -16.469145 0.614865 -36.933380 -45.143346 18.890674 0.000000 0.000000 0.000000 18.489470 -8.045948 -7.115420 46.541388 -2.234411 -4.952036 5.495653 12.959959 0.836750 0.000000 0.000000 0.000000 
